<svg id="Layer_1" data-name="Layer 1" xmlns="http://www.w3.org/2000/svg" viewBox="0 0 1000 1000"><defs><style>.cls-1{fill:#decfb0;}.cls-2{fill:#191a1c;}</style></defs><title>abcNURI</title><circle class="cls-1" cx="500" cy="500" r="500"/><path class="cls-2" d="M621,412.22a18.58,18.58,0,0,0-.08-10.06L500,137.69,379.13,402.16a18.48,18.48,0,0,0-.08,10.06q11.85,44.23,23.35,88.5C412.76,540.48,423,580.27,433.34,620c9.37,35.93,18.88,71.84,28.27,107.76q15,57.35,29.84,114.69c2.78,10.65,5.68,21.28,8.55,31.92,2.88-10.64,5.77-21.27,8.55-31.92q15-57.35,29.84-114.69C547.78,691.87,557.3,656,566.66,620c10.36-39.76,20.58-79.55,30.94-119.31Q609.14,456.44,621,412.22Z" transform="translate(0 0)"/><polygon class="cls-2" points="112.5 417.47 331.33 796.48 422.15 849.03 330.28 495.71 112.5 417.47"/><polygon class="cls-2" points="669.72 495.71 577.85 849.03 668.67 796.48 887.5 417.47 669.72 495.71"/></svg>