<svg width="1000" height="1000" viewBox="0 0 1000 1000" fill="none" xmlns="http://www.w3.org/2000/svg">
<g clip-path="url(#clip0_2619_132)">
<path d="M1000 500C1000 776.14 776.14 1000 500 1000C223.86 1000 0 776.14 0 500C0 223.86 223.86 0 500 0C776.14 0 1000 223.86 1000 500Z" fill="#B7DFFA"/>
<path d="M500.007 452.883L403.367 549.523L500.007 646.163L596.648 549.523L500.007 452.883Z" fill="black"/>
<path d="M525.52 216.23L500 201.23L474.48 216.23C231.34 358.94 135.23 625.73 131.26 637L226.38 670.48C227.19 668.16 306.87 446.85 499.99 319.12C692.2 446.38 772.82 668.24 773.65 670.57L821.18 653.75L868.74 637C864.77 625.73 768.66 358.94 525.52 216.23Z" fill="black"/>
</g>
<defs>
<clipPath id="clip0_2619_132">
<rect width="1000" height="1000" fill="white"/>
</clipPath>
</defs>
</svg>
