<?xml version="1.0" encoding="utf-8"?>
<!-- Generator: Adobe Illustrator 24.0.2, SVG Export Plug-In . SVG Version: 6.00 Build 0)  -->
<svg version="1.1" id="Layer_1" xmlns="http://www.w3.org/2000/svg" xmlns:xlink="http://www.w3.org/1999/xlink" x="0px" y="0px"
	 viewBox="0 0 1000 1000" style="enable-background:new 0 0 1000 1000;" xml:space="preserve">
<style type="text/css">
	.st0{fill:#CD9932;}
</style>
<title>abcRAM</title>
<g>
	<path class="st0" d="M500,1000c276.1,0,500-223.9,500-500S776.1,0,500,0S0,223.9,0,500S223.9,1000,500,1000z"/>
	<g>
		<polygon points="831.3,695 807,631.8 531.6,631.8 531.6,582 468.4,582 468.4,631.8 192.9,631.8 168.7,695 468.4,695 468.4,744.8 
			531.6,744.8 531.6,695 		"/>
		<polygon points="341.9,567.4 405.1,567.4 405.1,517.6 594.9,517.6 594.9,567.4 658.1,567.4 658.1,517.6 768.9,517.6 744.7,454.3 
			658.1,454.3 658.1,404.5 594.9,404.5 594.9,454.3 405.1,454.3 405.1,404.5 341.9,404.5 341.9,454.3 255.3,454.3 231.1,517.6 
			341.9,517.6 		"/>
		<polygon points="468.4,390 531.6,390 531.6,340.1 706.5,340.1 682.3,276.9 531.6,276.9 531.6,227.1 468.4,227.1 468.4,276.9 
			317.7,276.9 293.5,340.1 468.4,340.1 		"/>
	</g>
</g>
</svg>
