<?xml version="1.0" encoding="utf-8"?>
<!-- Generator: Adobe Illustrator 24.0.2, SVG Export Plug-In . SVG Version: 6.00 Build 0)  -->
<svg version="1.1" id="Layer_1" xmlns="http://www.w3.org/2000/svg" xmlns:xlink="http://www.w3.org/1999/xlink" x="0px" y="0px"
	 viewBox="0 0 1000 1000" style="enable-background:new 0 0 1000 1000;" xml:space="preserve">
<style type="text/css">
	.st0{fill:#E29245;}
	.st1{fill:#FFFFFF;}
</style>
<title>abcLINX</title>
<g>
	<path class="st0" d="M500,1000c276.1,0,500-223.9,500-500S776.1,0,500,0S0,223.9,0,500S223.9,1000,500,1000z"/>
	<path class="st1" d="M400.6,299.1h198.8c10,0,19.3,4.9,25,13.1l220.5,315.9c2.9,4.1,2,9.9-2.2,12.8c-1.6,1.1-3.5,1.7-5.4,1.7h-185
		c-10.9,0-21-5.5-27-14.5L507.4,449.7c-2.7-4-8.2-5.1-12.2-2.3c-0.9,0.6-1.7,1.4-2.3,2.3L376,626.5c-6.7,10.1-18,16.1-30.1,16.2
		H162.7c-5.1,0-9.3-4.2-9.2-9.3c0-1.9,0.6-3.7,1.7-5.2l220.5-315.9C381.3,304,390.6,299.1,400.6,299.1z"/>
</g>
</svg>
