<svg width="384" height="384" viewBox="0 0 384 384" fill="none" xmlns="http://www.w3.org/2000/svg">
<circle cx="192" cy="192" r="192" fill="#080B3A"/>
<g clip-path="url(#clip0_2222_67)">
<path d="M196.945 308.748C195.759 308.748 194.56 308.748 193.38 308.653C157.494 308.598 128.745 285.525 118.266 248.417C104.424 200.582 122.761 131.692 195.038 85.6933L212.358 75V95.2752C212.358 133.494 227.736 155.457 242.61 176.688C254.935 194.185 267.659 212.244 267.659 237.147C267.767 255.997 260.436 274.119 247.275 287.542C234.113 300.964 216.196 308.59 197.451 308.748H196.945ZM175.623 282.916C177.159 283.43 178.768 283.691 180.387 283.688C182.792 283.723 185.179 283.273 187.409 282.366C189.638 281.458 191.664 280.11 193.367 278.403C203.165 268.292 201.777 250.321 189.997 231.306C170.016 199.314 163.081 166.97 169.47 136.666C136.125 174.106 132.034 215.822 139.69 242.182C141.854 251.434 146.271 259.999 152.543 267.109C158.815 274.219 166.746 279.651 175.623 282.916ZM194.33 131.346C184.896 158.832 189.984 188.37 209.379 219.379C222.857 241.064 226.227 263.081 219.117 280.307C227.028 276.294 233.648 270.109 238.208 262.47C242.769 254.831 245.085 246.049 244.887 237.141C244.887 219.813 235.574 206.267 224.785 190.579L224.111 189.644C210.512 172.341 200.397 152.54 194.33 131.346Z" fill="url(#paint0_linear_2222_67)"/>
</g>
<defs>
<linearGradient id="paint0_linear_2222_67" x1="240.001" y1="294.723" x2="62.1194" y2="160.952" gradientUnits="userSpaceOnUse">
<stop stop-color="#1984FF"/>
<stop offset="1" stop-color="#4DD9F6"/>
</linearGradient>
<clipPath id="clip0_2222_67">
<rect width="155" height="234" fill="white" transform="translate(114 75)"/>
</clipPath>
</defs>
</svg>
