<svg id="Layer_1" data-name="Layer 1" xmlns="http://www.w3.org/2000/svg" viewBox="0 0 1000 1000"><defs><style>.cls-1{fill:#c82929;}.cls-2{fill:#161616;}</style></defs><title>abcPHAR</title><path class="cls-1" d="M1000,500c0,276.14-223.86,500-500,500S0,776.14,0,500,223.86,0,500,0,1000,223.86,1000,500Z"/><path class="cls-2" d="M572.3,215.66l-9.56-14.59a12.49,12.49,0,0,0-10.45-5.64H540.64c-12.91.41-26.22.61-40.69.61s-28.05-.2-41.08-.61H447.72a12.5,12.5,0,0,0-10.45,5.64l-9.42,14.39L406.94,246a12.5,12.5,0,0,0-2.14,8.07l38.26,468.27a12.49,12.49,0,0,0,12.45,11.48h89A12.49,12.49,0,0,0,557,722.38l38-468.27a12.51,12.51,0,0,0-2.1-8Z"/><path class="cls-2" d="M303,360.59a12.79,12.79,0,0,0-5.4-9.23,12.51,12.51,0,0,0-7.45-2.48h-.43a12.55,12.55,0,0,0-4.33.77,12.92,12.92,0,0,0-6.05,4.55l0,0-91,124.54a12.46,12.46,0,0,0-2.06,4.45,12.83,12.83,0,0,0,.42,7.44h0l85.39,235a12.5,12.5,0,0,0,11.75,8.23h53.61a12.49,12.49,0,0,0,12.39-14.11Z"/><path class="cls-2" d="M813.7,483.12a12.61,12.61,0,0,0-2.05-4.41L721,354.82a12.79,12.79,0,0,0-4.22-4.09,12.56,12.56,0,0,0-6.55-1.85h-.53a12.72,12.72,0,0,0-12.29,9.45,13.13,13.13,0,0,0-.41,2L650.17,719.75a12.49,12.49,0,0,0,12.39,14.11h53.61a12.49,12.49,0,0,0,11.74-8.23l85.4-235h0A12.83,12.83,0,0,0,813.7,483.12Z"/></svg>