<svg width="1080" height="1080" viewBox="0 0 1080 1080" fill="none" xmlns="http://www.w3.org/2000/svg">
<circle cx="540" cy="540" r="540" fill="#004EFC"/>
<path d="M817.543 275.312C818.893 276.662 819.568 278.406 819.568 280.544C821.031 383.256 821.762 456.494 821.762 500.256C821.874 579.906 814.506 636.494 799.656 670.019C719.162 851.425 482.912 891.925 342.343 751.863C201.774 611.631 241.599 375.381 422.837 294.381C456.362 279.419 512.949 271.881 592.599 271.769C636.362 271.656 709.599 272.163 812.312 273.288C814.449 273.288 816.193 273.962 817.543 275.312ZM440.387 653.65C471.999 685.15 509.462 698.256 552.774 692.969C698.068 675.25 678.662 530.631 677.818 420.944C677.783 420.293 677.486 419.579 676.974 418.919C676.749 418.581 676.356 418.131 675.793 417.569C675.343 417.006 674.949 416.612 674.612 416.387C673.892 415.831 673.111 415.531 672.418 415.544C562.731 415.038 418.112 396.138 400.731 541.431C395.556 584.744 408.774 622.15 440.387 653.65Z" fill="white"/>
</svg>
