<svg width="1004" height="1004" viewBox="0 0 1004 1004" fill="none" xmlns="http://www.w3.org/2000/svg">
<circle cx="502" cy="502" r="502" fill="#1F212E"/>
<path d="M1004 502C1004 779.247 779.247 1004 502 1004C224.753 1004 0 779.247 0 502C0 224.753 224.753 0 502 0C779.247 0 1004 224.753 1004 502Z" fill="url(#paint0_linear_2536_72)"/>
<path d="M760.012 255.938C761.267 257.193 761.894 258.815 761.894 260.802C763.254 356.286 763.934 424.37 763.934 465.053C764.038 539.098 757.188 591.703 743.383 622.869C668.554 791.51 448.929 829.16 318.252 698.953C187.575 568.59 224.598 348.965 393.081 273.665C424.247 259.756 476.853 252.749 550.898 252.644C591.58 252.54 659.664 253.01 755.149 254.056C757.136 254.056 758.757 254.683 760.012 255.938ZM409.396 607.652C438.784 636.936 473.61 649.12 513.875 644.204C648.944 627.732 630.904 493.29 630.119 391.322C630.087 390.716 629.811 390.053 629.335 389.439C629.126 389.125 628.76 388.707 628.237 388.184C627.819 387.661 627.453 387.295 627.139 387.086C626.469 386.569 625.744 386.29 625.099 386.302C523.131 385.831 388.689 368.261 372.531 503.33C367.72 543.595 380.008 578.369 409.396 607.652Z" fill="#C2C8E3"/>
<defs>
<linearGradient id="paint0_linear_2536_72" x1="-42.5519" y1="-99.4144" x2="1937.46" y2="745.404" gradientUnits="userSpaceOnUse">
<stop stop-color="#9AA3D0" stop-opacity="0"/>
<stop offset="1" stop-color="#9AA3D0" stop-opacity="0.5"/>
</linearGradient>
</defs>
</svg>
