<svg id="Layer_1" data-name="Layer 1" xmlns="http://www.w3.org/2000/svg" viewBox="0 0 1000 1000"><defs><style>.cls-1{fill:#90efe0;}</style></defs><title>abcCLEO</title><path class="cls-1" d="M1000,500c0,276.14-223.86,500-500,500S0,776.14,0,500,223.86,0,500,0,1000,223.86,1000,500Z" transform="translate(0 0)"/><path d="M545.91,332.08a847.1,847.1,0,0,0-91.82,0l-8.39.55,10,386.18,8.54.25c11.93.33,22.07.54,35.77.54s23.84-.21,35.77-.54l8.54-.25,10-386.18-8.39-.55Z" transform="translate(0 0)"/><path d="M374.85,274.28A509,509,0,0,0,276,304.86L273.32,306,305,629.9l3.14.43c25.6,3.52,51.84,6.31,78,8.29l4.45.34-11-365.62Z" transform="translate(0 0)"/><path d="M218.14,408.33a420.28,420.28,0,0,0-74.54,58l-1.55,1.51,40.61,210.41,2.6.55c5.05,1.07,13.92,3.11,24,5.43l.17,0c18.29,4.22,41.05,9.47,50.65,11.1l5.44.91L223.34,405.15Z" transform="translate(0 0)"/><path d="M856.4,466.29a420.28,420.28,0,0,0-74.54-58l-5.2-3.18L734.53,696.24l5.44-.91c9.6-1.63,32.36-6.88,50.84-11.14,10-2.32,18.89-4.36,23.93-5.43l2.6-.56L858,467.8Z" transform="translate(0 0)"/><path d="M625.15,274.28l-4.66-.94L609.46,639l4.45-.34c26.15-2,52.39-4.77,78-8.29l3.14-.43L726.68,306,724,304.86A509,509,0,0,0,625.15,274.28Z" transform="translate(0 0)"/></svg>