<svg width="81" height="80" viewBox="0 0 81 80" fill="none" xmlns="http://www.w3.org/2000/svg">
<path d="M36.3042 41.5055L39.3383 47.171C41.0748 50.4722 42.9582 52.598 45.2729 53.8536C47.3624 54.9852 49.9327 55.4889 53.6118 55.4889C55.5768 55.3799 57.5056 54.9144 59.304 54.115L57.7583 41.7174C55.789 43.5143 53.2049 44.4863 50.5395 44.4327C47.868 44.4327 45.8072 43.5378 42.9467 41.1258L42.6987 40.9159L43.2005 40.0286L43.4772 40.0801C44.6126 40.2824 45.7652 40.3797 46.9216 40.3797C50.0122 40.5176 53.0379 39.4644 55.3749 37.4372C56.3397 36.532 57.1046 35.4352 57.6205 34.217C58.1365 32.9988 58.392 31.6862 58.3708 30.3635C58.3708 24.1274 52.9324 19.7805 45.1431 19.7805H22.5823V54.718H35.2605V41.4082L36.1688 41.2594L36.3023 41.5075L36.3042 41.5055ZM35.2662 35.6206V29.7204H42.2827C43.4316 29.6721 44.5638 30.0085 45.4999 30.6764C46.3567 31.3557 46.8395 32.3995 46.8071 33.4853L46.788 33.8708C46.5685 35.9183 44.5821 37.3914 41.9812 37.3914C39.7162 37.3354 37.4939 36.763 35.4837 35.7179L35.2662 35.6206Z" fill="#40DEFF"/>
<path d="M11.8427 68.1042C15.5484 71.8642 19.9634 74.8517 24.8317 76.8937C29.7001 78.9356 34.9252 79.9914 40.2045 80C50.8161 80 60.8132 75.884 68.3525 68.4133C83.9942 52.8556 84.1716 27.7454 68.7476 11.976C65.076 8.21653 60.6954 5.22239 55.8593 3.16676C51.0232 1.11112 45.8275 0.0347818 40.5728 0L40.193 0C18.3134 0 0.402922 17.6968 0.200651 39.6241V39.6336C0.162068 44.9131 1.17099 50.1478 3.16901 55.0348C5.16703 59.9218 8.11639 64.3639 11.8427 68.1042ZM8.60443 39.6184C8.57474 35.4485 9.37217 31.3141 10.9506 27.4543C12.529 23.5946 14.8571 20.0862 17.8001 17.132C20.7274 14.1619 24.2146 11.8019 28.0599 10.1884C31.9053 8.57491 36.0324 7.74004 40.2026 7.73209H40.2083C57.4795 7.73209 71.6633 21.7823 71.8198 39.0573C71.8675 43.2101 71.0917 47.3311 69.5373 51.1822C67.9828 55.0333 65.6805 58.5381 62.7634 61.4941C59.8621 64.4641 56.4005 66.829 52.579 68.452C48.7575 70.0751 44.652 70.9239 40.5002 70.9493H40.2083C22.9122 70.9551 8.76472 56.9621 8.60824 39.6241V39.6184H8.60443Z" fill="#40DEFF"/>
</svg>
